<svg xmlns="http://www.w3.org/2000/svg" width="135" height="135" fill="none"><path fill="#7A4FEE" fill-rule="evenodd" d="M51.328 135c3.107 0 5.604-2.527 5.825-5.626 2.75-38.62 33.601-69.47 72.221-72.221 3.099-.22 5.626-2.718 5.626-5.825V5.625A5.625 5.625 0 0 0 129.375 0H83.672c-3.107 0-5.604 2.527-5.825 5.626-2.75 38.62-33.601 69.47-72.221 72.221C2.527 78.067 0 80.565 0 83.672v45.703A5.625 5.625 0 0 0 5.625 135h45.703ZM135 74.773c0-3.107-2.527-5.65-5.623-5.388-31.883 2.696-57.296 28.109-59.992 59.992-.262 3.096 2.281 5.623 5.388 5.623h54.602a5.624 5.624 0 0 0 5.625-5.625V74.773ZM60.227 0c3.107 0 5.65 2.527 5.388 5.623C62.92 37.506 37.506 62.919 5.623 65.615 2.527 65.877 0 63.334 0 60.227V5.625A5.625 5.625 0 0 1 5.625 0h54.602Z" clip-rule="evenodd"/></svg>