<svg xmlns="http://www.w3.org/2000/svg" width="151" height="151" fill="none"><path fill="#7A4FEE" fill-rule="evenodd" d="M151 57.38c0 1.668-1.359 3.015-3.026 3.07-47.632 1.563-85.961 39.892-87.524 87.524-.055 1.667-1.402 3.026-3.07 3.026H3.02A3.02 3.02 0 0 1 0 147.98V93.62c0-1.668 1.359-3.015 3.026-3.07C50.658 88.987 88.987 50.658 90.55 3.026 90.605 1.359 91.952 0 93.62 0h54.36A3.02 3.02 0 0 1 151 3.02v54.36ZM0 80.03c0 1.668 1.358 3.026 3.025 2.966C46.487 81.44 81.44 46.487 82.995 3.025 83.056 1.358 81.699 0 80.03 0H3.02A3.02 3.02 0 0 0 0 3.02v77.01ZM70.97 151c-1.668 0-3.026-1.358-2.966-3.025 1.556-43.462 36.509-78.415 79.971-79.97 1.667-.06 3.025 1.297 3.025 2.965v77.01a3.02 3.02 0 0 1-3.02 3.02H70.97Z" clip-rule="evenodd"/></svg>